# xmcd
#
# Track frame offsets:
#	150
#	12862
#	27345
#	46690
#	57597
#	70757
#	82397
#	93230
#	106370
#	119132
#	134765
#	147140
#	160065
#	174660
#	192085
#	203627
#
# Disc length: 2913 seconds
#
# Revision: 1
# Processed by: cddbd v1.5.1PL0 Copyright (c) Steve Scherf et al.
# Submitted via: audiograbber 1.83.01
#
DISCID=e40b5f10
DTITLE=Jones, Chris - A Few Words (The Best of the Originals)
DYEAR=2002
DGENRE=Bluegrass
TTITLE0=Dark Wind Of Missouri
TTITLE1=Bridge To Portsmouth
TTITLE2=A Few Words
TTITLE3=Uphill Climb
TTITLE4=Stream Of Love
TTITLE5=Nelson And The Mountains
TTITLE6=Heartaches To Forget
TTITLE7=Alone With You
TTITLE8=Just A Town
TTITLE9=Wit's End
TTITLE10=Model Prisoner
TTITLE11=Too Far Down The Road
TTITLE12=Blinded By The Rose
TTITLE13=Fork In The Road
TTITLE14=No One But You
TTITLE15=Witness
EXTD=
EXTT0=
EXTT1=
EXTT2=
EXTT3=
EXTT4=
EXTT5=
EXTT6=
EXTT7=
EXTT8=
EXTT9=
EXTT10=
EXTT11=
EXTT12=
EXTT13=
EXTT14=
EXTT15=
PLAYORDER=
